<svg xmlns="http://www.w3.org/2000/svg" viewBox="0 0 64 64" width="64" height="64">
<rect width="64" height="64" fill="#FBF8F1"/>
<rect x="0" y="0" width="64" height="3" fill="#1E5B8C"/><rect x="0" y="50" width="64" height="6" fill="#1E5B8C"/>
<rect x="0" y="57.5" width="64" height="1.5" fill="#D39A35"/><rect x="0" y="61" width="64" height="3" fill="#1E5B8C"/>
<path d="M0 50 C14 50 14 16 32 16 A14 14 0 0 1 32 44 A10 10 0 0 1 32 24 A6 6 0 0 1 32 36 A3 3 0 0 1 32 30" fill="none" stroke="#1E5B8C" stroke-width="3" stroke-linecap="round"/>
<circle cx="54" cy="42" r="2.2" fill="#D39A35"/><circle cx="49" cy="46.5" r="1.4" fill="#D39A35"/>
<path d="M0.5 0 V64" stroke="#131A1C" stroke-opacity="0.08" stroke-width="1"/>
</svg>
